<svg width="60" height="60" viewBox="0 0 60 60" fill="none" xmlns="http://www.w3.org/2000/svg">
<path d="M27.3826 27.8158C25.0752 27.8158 22.8195 27.1315 20.901 25.8496C18.9824 24.5676 17.487 22.7455 16.604 20.6137C15.721 18.4819 15.49 16.1362 15.9401 13.873C16.3903 11.6099 17.5014 9.53113 19.133 7.89951C20.7646 6.2679 22.8434 5.15676 25.1066 4.7066C27.3697 4.25644 29.7154 4.48748 31.8472 5.3705C33.9791 6.25352 35.8011 7.74887 37.0831 9.66744C38.365 11.586 39.0493 13.8416 39.0493 16.1491C39.0493 19.2433 37.8201 22.2107 35.6322 24.3987C33.4443 26.5866 30.4768 27.8158 27.3826 27.8158ZM27.3826 7.94909C25.7344 7.94909 24.1233 8.43784 22.7529 9.35351C21.3824 10.2692 20.3143 11.5707 19.6836 13.0934C19.0529 14.6161 18.8879 16.2917 19.2094 17.9082C19.5309 19.5247 20.3246 21.0095 21.4901 22.175C22.6555 23.3404 24.1403 24.1341 25.7569 24.4556C27.3734 24.7772 29.0489 24.6122 30.5716 23.9814C32.0944 23.3507 33.3958 22.2826 34.3115 20.9122C35.2272 19.5418 35.7159 17.9306 35.7159 16.2824C35.7159 15.1881 35.5004 14.1044 35.0816 13.0934C34.6628 12.0824 34.049 11.1637 33.2752 10.3899C32.5013 9.61605 31.5827 9.00222 30.5716 8.58343C29.5606 8.16464 28.477 7.94909 27.3826 7.94909V7.94909ZM36.6659 29.8324C27.6466 27.8029 18.211 28.7804 9.79927 32.6158C8.64243 33.1684 7.66638 34.0382 6.98477 35.1241C6.30317 36.2099 5.94406 37.4671 5.94927 38.7491V48.6658C5.94927 48.8846 5.99238 49.1014 6.07614 49.3036C6.1599 49.5058 6.28267 49.6895 6.43743 49.8443C6.59219 49.999 6.77593 50.1218 6.97814 50.2056C7.18034 50.2893 7.39707 50.3324 7.61594 50.3324C7.83481 50.3324 8.05154 50.2893 8.25375 50.2056C8.45596 50.1218 8.63969 49.999 8.79445 49.8443C8.94922 49.6895 9.07198 49.5058 9.15574 49.3036C9.2395 49.1014 9.28261 48.8846 9.28261 48.6658V38.7491C9.2681 38.1003 9.44331 37.4613 9.78674 36.9106C10.1302 36.36 10.6269 35.9215 11.2159 35.6491C16.2831 33.3094 21.8015 32.109 27.3826 32.1324C30.5098 32.1284 33.6263 32.4977 36.6659 33.2324V29.8324ZM36.8993 45.6824H47.1326V48.0158H36.8993V45.6824Z" fill="#FF5E14"/>
<path d="M55.2827 35.7827H46.666V39.116H53.616V53.066H29.9993V39.116H40.4993V39.816C40.4993 40.258 40.6749 40.682 40.9875 40.9945C41.3001 41.3071 41.724 41.4827 42.166 41.4827C42.608 41.4827 43.032 41.3071 43.3445 40.9945C43.6571 40.682 43.8327 40.258 43.8327 39.816V33.3327C43.8327 32.8907 43.6571 32.4667 43.3445 32.1542C43.032 31.8416 42.608 31.666 42.166 31.666C41.724 31.666 41.3001 31.8416 40.9875 32.1542C40.6749 32.4667 40.4993 32.8907 40.4993 33.3327V35.7827H28.3327C27.8907 35.7827 27.4667 35.9583 27.1542 36.2708C26.8416 36.5834 26.666 37.0073 26.666 37.4493V54.7327C26.666 55.1747 26.8416 55.5986 27.1542 55.9112C27.4667 56.2238 27.8907 56.3993 28.3327 56.3993H55.2827C55.7247 56.3993 56.1486 56.2238 56.4612 55.9112C56.7738 55.5986 56.9493 55.1747 56.9493 54.7327V37.4493C56.9493 37.0073 56.7738 36.5834 56.4612 36.2708C56.1486 35.9583 55.7247 35.7827 55.2827 35.7827Z" fill="#FF5E14"/>
</svg>
