<svg width="60" height="60" viewBox="0 0 60 60" fill="none" xmlns="http://www.w3.org/2000/svg">
<path d="M26.25 5.625C25.275 5.625 24.2625 5.9625 23.55 6.675C22.8375 7.3875 22.5 8.4 22.5 9.375V11.25H5.625V48.75H26.625C26.3812 47.55 26.25 46.2937 26.25 45H9.375V32.7C10.4812 33.3375 11.7562 33.75 13.125 33.75H30.0188C31.0688 32.325 32.3438 31.05 33.7688 30H13.125C10.8937 30 9.375 28.4813 9.375 26.25V15H50.625V26.25C50.625 26.55 50.6062 26.8312 50.55 27.0937C51.9 27.5062 53.175 28.0688 54.375 28.7625V11.25H37.5V9.375C37.5 8.4 37.1625 7.3875 36.45 6.675C35.7375 5.9625 34.725 5.625 33.75 5.625H26.25ZM26.25 9.375H33.75V11.25H26.25V9.375ZM16.875 22.5V28.125H20.625V22.5H16.875ZM39.375 22.5V27.1125C40.596 26.7309 41.8523 26.4734 43.125 26.3438V22.5H39.375ZM45 30C36.7313 30 30 36.7313 30 45C30 53.2687 36.7313 60 45 60C53.2687 60 60 53.2687 60 45C60 36.7313 53.2687 30 45 30ZM45 33.75C51.225 33.75 56.25 38.775 56.25 45C56.25 51.225 51.225 56.25 45 56.25C38.775 56.25 33.75 51.225 33.75 45C33.75 38.775 38.775 33.75 45 33.75ZM43.125 35.625V46.875H52.5V43.125H46.875V35.625H43.125Z" fill="#FF5E14"/>
</svg>
