<svg width="60" height="60" viewBox="0 0 60 60" fill="none" xmlns="http://www.w3.org/2000/svg">
<path d="M52.5 31.875V41.25H7.5V11.25H26.25V7.5H7.5C6.50544 7.5 5.55161 7.89509 4.84835 8.59835C4.14509 9.30161 3.75 10.2554 3.75 11.25V41.25C3.75 42.2446 4.14509 43.1984 4.84835 43.9016C5.55161 44.6049 6.50544 45 7.5 45H22.5V52.5H15V56.25H45V52.5H37.5V45H52.5C53.4946 45 54.4484 44.6049 55.1516 43.9016C55.8549 43.1984 56.25 42.2446 56.25 41.25V31.875H52.5ZM33.75 52.5H26.25V45H33.75V52.5Z" fill="#FF5E14"/>
<path d="M56.25 18.75V15H52.3106C52.0688 13.8263 51.6028 12.7103 50.9381 11.7131L53.7319 8.91937L51.0806 6.26812L48.2869 9.06188C47.2897 8.39721 46.1737 7.93119 45 7.68937V3.75H41.25V7.68937C40.0763 7.93119 38.9603 8.39721 37.9631 9.06188L35.1694 6.26812L32.5181 8.91937L35.3119 11.7131C34.6472 12.7103 34.1812 13.8263 33.9394 15H30V18.75H33.9394C34.1812 19.9237 34.6472 21.0397 35.3119 22.0369L32.5181 24.8306L35.1694 27.4819L37.9631 24.6881C38.9603 25.3528 40.0763 25.8188 41.25 26.0606V30H45V26.0606C46.1737 25.8188 47.2897 25.3528 48.2869 24.6881L51.0806 27.4819L53.7319 24.8306L50.9381 22.0369C51.6028 21.0397 52.0688 19.9237 52.3106 18.75H56.25ZM43.125 22.5C42.0125 22.5 40.9249 22.1701 39.9999 21.552C39.0749 20.9339 38.3539 20.0554 37.9282 19.0276C37.5024 17.9998 37.391 16.8688 37.6081 15.7776C37.8251 14.6865 38.3609 13.6842 39.1475 12.8975C39.9342 12.1109 40.9365 11.5751 42.0276 11.3581C43.1188 11.141 44.2498 11.2524 45.2776 11.6782C46.3054 12.1039 47.1839 12.8249 47.802 13.7499C48.4201 14.6749 48.75 15.7625 48.75 16.875C48.7485 18.3664 48.1554 19.7963 47.1008 20.8508C46.0463 21.9054 44.6164 22.4985 43.125 22.5V22.5Z" fill="#FF5E14"/>
</svg>
